<?xml version="1.0" encoding="UTF-8" standalone="no"?>
<!-- Created with Inkscape (http://www.inkscape.org/) -->

<svg
   xmlns:dc="http://purl.org/dc/elements/1.1/"
   xmlns:cc="http://creativecommons.org/ns#"
   xmlns:rdf="http://www.w3.org/1999/02/22-rdf-syntax-ns#"
   xmlns:svg="http://www.w3.org/2000/svg"
   xmlns="http://www.w3.org/2000/svg"
   xmlns:sodipodi="http://sodipodi.sourceforge.net/DTD/sodipodi-0.dtd"
   xmlns:inkscape="http://www.inkscape.org/namespaces/inkscape"
   width="210mm"
   height="297mm"
   viewBox="0 0 210 297"
   version="1.1"
   id="svg8"
   inkscape:version="0.92.3 (2405546, 2018-03-11)"
   sodipodi:docname="esi.svg">
  <defs
     id="defs2" />
  <sodipodi:namedview
     id="base"
     pagecolor="#ffffff"
     bordercolor="#666666"
     borderopacity="1.0"
     inkscape:pageopacity="0.0"
     inkscape:pageshadow="2"
     inkscape:zoom="2.8120589"
     inkscape:cx="397.14286"
     inkscape:cy="799.99996"
     inkscape:document-units="mm"
     inkscape:current-layer="layer1"
     showgrid="false"
     inkscape:window-width="1600"
     inkscape:window-height="837"
     inkscape:window-x="-8"
     inkscape:window-y="-8"
     inkscape:window-maximized="1" />
  <metadata
     id="metadata5">
    <rdf:RDF>
      <cc:Work
         rdf:about="">
        <dc:format>image/svg+xml</dc:format>
        <dc:type
           rdf:resource="http://purl.org/dc/dcmitype/StillImage" />
        <dc:title></dc:title>
      </cc:Work>
    </rdf:RDF>
  </metadata>
  <g
     inkscape:label="Capa 1"
     inkscape:groupmode="layer"
     id="layer1">
    <path
       inkscape:connector-curvature="0"
       id="path37"
       d="M 60.077044,85.333338 V 55.319007 h 45.000336 45.00034 V 85.333338 115.34768 H 105.07738 60.077044 Z"
       style="fill:#fdfdfd;stroke-width:0.08466667" />
    <g
       id="g69"
       transform="translate(2.3522207,-1.1290659)">
      <path
         style="fill:#b6b6b6;stroke-width:0.08466667"
         d="m 105.94884,110.58531 c -0.0223,-0.0582 -0.0306,-2.20133 -0.0185,-4.7625 l 0.022,-4.65667 3.00567,-0.0536 c 3.33112,-0.0594 3.9827,-0.14239 5.10012,-0.64959 1.49838,-0.680113 2.24005,-2.126169 1.93088,-3.764709 -0.3225,-1.709188 -1.7083,-2.751628 -5.42234,-4.078848 -2.78751,-0.99613 -3.64797,-1.33905 -4.90416,-1.954466 -2.12485,-1.04099 -3.82533,-2.19681 -5.15035,-3.50075 -0.38436,-0.37824 -0.736777,-0.68771 -0.783167,-0.68771 -0.14746,0 -0.0932,0.28934 0.26393,1.40738 0.430987,1.34927 0.742627,2.14047 1.228057,3.117876 0.20695,0.41669 0.35723,0.80721 0.33396,0.86784 -0.0344,0.0897 -1.995587,0.11023 -10.534564,0.11023 -8.733277,0 -10.499623,0.0192 -10.536152,0.11437 -0.06279,0.16363 0.167156,1.41668 0.371035,2.02188 1.028192,3.052148 3.934963,5.436154 7.826506,6.418977 1.625355,0.4105 2.59263,0.50398 5.22964,0.50541 1.313907,6.8e-4 2.436874,0.0317 2.49548,0.0689 0.08397,0.0533 0.101918,1.06245 0.08467,4.76121 l -0.02189,4.69355 -3.556,0.0258 c -2.061969,0.015 -4.058745,-0.0132 -4.752603,-0.067 -10.890488,-0.84503 -18.131677,-6.80697 -20.142721,-16.584247 -0.358384,-1.74239 -0.471962,-2.8566 -0.519004,-5.091516 -0.05204,-2.47238 0.06673,-3.96485 0.478368,-6.01133 0.49163,-2.44415 1.082709,-4.19539 2.157541,-6.39233 3.210395,-6.56201 8.595714,-10.459832 16.047419,-11.614897 1.428403,-0.221412 5.551006,-0.218256 6.985,0.0054 3.186687,0.496903 5.799488,1.525813 8.160235,3.213467 0.48483,0.3466 0.74281,0.48279 0.81454,0.43 3.12009,-2.296226 6.48372,-3.489354 10.83724,-3.844116 4.33194,-0.353003 9.86836,0.545663 13.56784,2.20232 0.48914,0.219041 0.61383,0.312224 0.61383,0.458721 0,0.249631 -2.19105,9.045745 -2.27386,9.128545 -0.0362,0.0362 -0.46329,-0.12091 -0.94913,-0.3491 -1.70975,-0.80305 -4.03293,-1.50921 -6.06263,-1.84279 -1.24377,-0.20442 -3.62366,-0.20788 -4.51207,-0.007 -2.25167,0.51022 -3.51009,2.03004 -3.21225,3.87948 0.29037,1.80304 1.79306,2.794 7.1093,4.68825 4.85332,1.72932 7.69121,3.5753 9.66534,6.28708 0.27936,0.38376 0.54184,0.67678 0.58328,0.65117 0.0434,-0.0268 0.0754,-4.77674 0.0754,-11.20346 0,-6.13629 0.0253,-11.182202 0.0563,-11.213139 0.11198,-0.111974 2.87842,1.450349 4.80636,2.714349 2.26255,1.48337 3.4834,2.44312 5.02933,3.95369 1.86142,1.81885 2.90577,3.33795 3.49674,5.08632 l 0.20032,0.59267 0.0225,14.964826 c 0.0124,8.230667 0.002,14.964847 -0.0229,14.964847 -0.025,0 -1.58373,-1.00965 -3.46386,-2.24367 -1.88013,-1.23402 -3.48907,-2.24329 -3.57544,-2.24283 -0.0864,4.3e-4 -1.56643,1.00665 -3.28905,2.23597 -1.72262,1.22932 -3.1609,2.2173 -3.19617,2.1955 -0.0353,-0.0218 -0.0641,-1.46614 -0.0641,-3.20964 0,-1.93405 -0.0312,-3.17 -0.08,-3.17 -0.044,0 -0.31971,0.35242 -0.61266,0.78317 -0.64097,0.94246 -2.13503,2.4597 -3.07558,3.12331 -2.91725,2.05828 -6.54469,3.19934 -11.26008,3.54202 -1.77453,0.12896 -6.55613,0.11521 -6.60749,-0.019 z M 96.665224,82.211207 c 0.01444,-0.22711 -0.03459,-0.82775 -0.108939,-1.33475 -0.569565,-3.88382 -2.593624,-6.34465 -5.814759,-7.06954 -0.844649,-0.19008 -2.769778,-0.19008 -3.614427,0 -3.036342,0.6833 -5.356449,3.13203 -6.368125,6.72117 -0.269779,0.9571 -0.41717,1.9086 -0.314915,2.03298 0.06919,0.0842 1.762676,0.10177 8.141141,0.0847 l 8.053779,-0.0216 z m 44.085106,-11.15355 c -0.58785,-0.44918 -3.4325,-2.11749 -4.40267,-2.58205 -2.10918,-1.009985 -5.32939,-1.858853 -8.001,-2.109119 -0.34925,-0.03272 -0.68262,-0.09802 -0.74083,-0.145117 -0.0761,-0.06155 -0.10583,-0.439078 -0.10583,-1.342286 0,-1.110219 0.0173,-1.265877 0.14816,-1.335798 0.24065,-0.128546 2.15856,-0.428849 3.66184,-0.573365 1.68569,-0.162053 5.67106,-0.114802 7.15433,0.08482 1.35159,0.181902 2.50563,0.390698 2.68244,0.485324 0.14528,0.07775 0.15389,0.297727 0.15389,3.931717 0,3.024294 -0.0227,3.848854 -0.10583,3.847004 -0.0582,-0.001 -0.25823,-0.11881 -0.4445,-0.26113 z"
         id="path29"
         inkscape:connector-curvature="0" />
    </g>
  </g>
</svg>
